<?xml version="1.0" encoding="iso-8859-1"?>
<!-- Generator: Adobe Illustrator 19.0.0, SVG Export Plug-In . SVG Version: 6.00 Build 0)  -->
<svg version="1.1" id="Layer_1" xmlns="http://www.w3.org/2000/svg" xmlns:xlink="http://www.w3.org/1999/xlink" x="0px" y="0px"
	 viewBox="0 0 512 512" style="enable-background:new 0 0 512 512;" xml:space="preserve">
<path style="fill:#F9EBDB;" d="M492.627,424.628l-6.509,22.783c-2.513,8.779-12.033,15.963-21.166,15.963H66.422
	c-9.133,0-18.653-7.185-21.166-15.963l-6.509-22.783H492.627z"/>
<path style="fill:#C8FEFF;" d="M442.811,129.771v88.562c0,97.828-79.307,177.124-177.124,177.124
	c-50.658,0-96.333-21.266-128.614-55.351h-48.51c-23.657,0-45.897-9.21-62.625-25.938C9.21,297.442,0,275.201,0,251.544
	s9.21-45.897,25.938-62.625s38.967-25.938,62.625-25.938v-33.211h33.211l143.914,44.281L409.6,129.771
	C409.6,129.771,442.811,129.771,442.811,129.771z M88.562,306.896h23.701c-15.078-26.048-23.701-56.303-23.701-88.562v-22.141
	c-14.79,0-28.683,5.757-39.144,16.207c-10.45,10.461-16.207,24.355-16.207,39.144s5.757,28.683,16.218,39.145
	C59.879,301.139,73.772,306.896,88.562,306.896z"/>
<path style="fill:#F9EBDB;" d="M409.6,129.771l-143.914,22.141l-143.914-22.141c0-30.023,24.344-54.366,54.366-54.366
	c14.203,0,27.122,5.447,36.809,14.358c5.912-23.624,27.277-41.137,52.739-41.137s46.827,17.513,52.739,41.137
	c9.686-8.912,22.605-14.358,36.809-14.358C385.257,75.405,409.6,99.749,409.6,129.771z"/>
<path style="fill:#E8D6BD;" d="M503.697,432.931H27.676c-4.585,0-8.303-3.716-8.303-8.303s3.717-8.303,8.303-8.303h476.022
	c4.585,0,8.303,3.716,8.303,8.303S508.283,432.931,503.697,432.931z"/>
<path style="fill:#BD9F79;" d="M409.6,218.333c0,79.352-64.562,143.914-143.914,143.914s-143.914-64.562-143.914-143.914
	l143.902-33.211L409.6,218.333z"/>
<path style="fill:#E8D6BD;" d="M409.6,129.771v88.562c-35.978,0-35.978,15.498-71.957,15.498s-35.978-15.498-71.968-15.498
	c-35.967,0-35.967,15.498-71.946,15.498s-35.978-15.498-71.957-15.498v-88.562C121.773,129.771,409.6,129.771,409.6,129.771z"/>
<g>
</g>
<g>
</g>
<g>
</g>
<g>
</g>
<g>
</g>
<g>
</g>
<g>
</g>
<g>
</g>
<g>
</g>
<g>
</g>
<g>
</g>
<g>
</g>
<g>
</g>
<g>
</g>
<g>
</g>
</svg>
