<?xml version="1.0" encoding="iso-8859-1"?>
<!-- Generator: Adobe Illustrator 19.0.0, SVG Export Plug-In . SVG Version: 6.00 Build 0)  -->
<svg version="1.1" id="Layer_1" xmlns="http://www.w3.org/2000/svg" xmlns:xlink="http://www.w3.org/1999/xlink" x="0px" y="0px"
	 viewBox="0 0 512 512" style="enable-background:new 0 0 512 512;" xml:space="preserve">
<path style="fill:#F9EBDB;" d="M492.627,403.428l-6.509,22.783c-2.513,8.779-12.033,15.963-21.166,15.963H66.422
	c-9.133,0-18.653-7.185-21.166-15.963l-6.509-22.783H492.627z"/>
<path style="fill:#E8D6BD;" d="M503.697,411.731H27.676c-4.585,0-8.303-3.716-8.303-8.303c0-4.586,3.717-8.303,8.303-8.303h476.022
	c4.586,0,8.303,3.716,8.303,8.303C512,408.015,508.284,411.731,503.697,411.731z"/>
<path style="fill:#C8FEFF;" d="M442.811,108.572v88.562c0,97.828-79.307,177.124-177.124,177.124
	c-50.658,0-96.333-21.266-128.614-55.351h-48.51c-23.657,0-45.897-9.21-62.625-25.938C9.21,276.242,0,254.002,0,230.345
	s9.21-45.897,25.938-62.625s38.967-25.938,62.625-25.938v-33.211h33.211l143.914,22.141L409.6,108.572L442.811,108.572
	L442.811,108.572z M88.562,285.696h23.701c-15.078-26.048-23.701-56.303-23.701-88.562v-22.141c-14.79,0-28.683,5.757-39.144,16.207
	c-10.45,10.461-16.207,24.355-16.207,39.144c0,14.79,5.757,28.683,16.218,39.144C59.879,279.939,73.772,285.696,88.562,285.696z"/>
<path style="fill:#F9EBDB;" d="M409.6,108.572l-143.914,22.141l-143.914-22.141c0-21.399,17.347-38.746,38.746-38.746
	c10.151,0,19.384,3.908,26.292,10.295c6.908-6.388,16.14-10.295,26.292-10.295c10.151,0,19.384,3.908,26.292,10.295
	c6.908-6.388,16.14-10.295,26.292-10.295c10.151,0,19.384,3.908,26.292,10.295c6.908-6.388,16.14-10.295,26.292-10.295
	c10.151,0,19.384,3.908,26.292,10.295c6.908-6.388,16.14-10.295,26.292-10.295C392.253,69.826,409.6,87.173,409.6,108.572z"/>
<polygon style="fill:#E8D6BD;" points="409.6,108.572 409.6,141.783 265.675,241.415 121.773,141.783 121.773,108.572 "/>
<path style="fill:#BD9F79;" d="M409.6,141.783v55.351c0,79.352-64.562,143.914-143.914,143.914s-143.914-64.562-143.914-143.914
	v-55.351c35.978,0,35.978,15.498,71.957,15.498s35.978-15.498,71.946-15.498c35.989,0,35.989,15.498,71.968,15.498
	S373.622,141.783,409.6,141.783z"/>
<g>
</g>
<g>
</g>
<g>
</g>
<g>
</g>
<g>
</g>
<g>
</g>
<g>
</g>
<g>
</g>
<g>
</g>
<g>
</g>
<g>
</g>
<g>
</g>
<g>
</g>
<g>
</g>
<g>
</g>
</svg>
