<?xml version="1.0" encoding="iso-8859-1"?>
<!-- Generator: Adobe Illustrator 19.0.0, SVG Export Plug-In . SVG Version: 6.00 Build 0)  -->
<svg version="1.1" id="Layer_1" xmlns="http://www.w3.org/2000/svg" xmlns:xlink="http://www.w3.org/1999/xlink" x="0px" y="0px"
	 viewBox="0 0 512 512" style="enable-background:new 0 0 512 512;" xml:space="preserve">
<path style="fill:#C8FEFF;" d="M458.502,128.766l-28.379,321.435c-3,33.996-33.375,61.799-67.495,61.799H249.836
	c-34.108,0-64.472-27.792-67.495-61.776h-28.379c-28.051,0-53.982-15.216-73.01-42.827c-17.708-25.694-27.454-59.554-27.454-95.343
	c0-35.778,9.745-69.638,27.454-95.332c19.039-27.623,44.959-42.838,73.01-42.838h3.982l-3.982-45.117L458.502,128.766
	L458.502,128.766z M179.363,416.386l-18.43-208.666h-6.971c-16.58,0-32.62,10.016-45.139,28.198
	c-13.862,20.111-21.487,47.147-21.487,76.135c0,28.999,7.625,56.035,21.476,76.146c12.531,18.182,28.57,28.187,45.151,28.187
	H179.363z"/>
<path style="fill:#8E4238;" d="M414.569,241.558l-18.16,205.665c-1.455,16.479-17.235,30.939-33.781,30.939H249.836
	c-16.547,0-32.326-14.46-33.781-30.939l-18.16-205.665c27.081,0,27.081,11.279,54.174,11.279c27.081,0,27.081-11.279,54.174-11.279
	c27.081,0,27.081,11.279,54.163,11.279S387.488,241.558,414.569,241.558z"/>
<g>
	<path style="fill:#F9EBDB;" d="M266.755,103.391c-4.673,0-8.459-3.788-8.459-8.459c0-12.882,3.506-19.601,6.599-25.529
		c2.615-5.011,4.68-8.969,4.68-17.704c0-8.736-2.065-12.695-4.68-17.706c-3.093-5.928-6.599-12.649-6.599-25.533
		c0-4.672,3.786-8.459,8.459-8.459c4.673,0,8.459,3.788,8.459,8.459c0,8.736,2.065,12.695,4.68,17.706
		c3.093,5.928,6.599,12.649,6.599,25.533c0,12.882-3.506,19.602-6.599,25.529c-2.615,5.011-4.68,8.969-4.68,17.704
		C275.214,99.603,271.428,103.391,266.755,103.391z"/>
	<path style="fill:#F9EBDB;" d="M334.43,103.391c-4.673,0-8.459-3.788-8.459-8.459c0-12.882,3.506-19.601,6.599-25.529
		c2.615-5.011,4.68-8.969,4.68-17.704c0-8.736-2.065-12.695-4.68-17.706c-3.093-5.928-6.599-12.649-6.599-25.533
		c0-4.672,3.786-8.459,8.459-8.459c4.673,0,8.459,3.788,8.459,8.459c0,8.736,2.065,12.695,4.68,17.706
		c3.093,5.928,6.599,12.649,6.599,25.533c0,12.882-3.506,19.602-6.599,25.529c-2.615,5.011-4.68,8.969-4.68,17.704
		C342.889,99.603,339.103,103.391,334.43,103.391z"/>
</g>
<g>
</g>
<g>
</g>
<g>
</g>
<g>
</g>
<g>
</g>
<g>
</g>
<g>
</g>
<g>
</g>
<g>
</g>
<g>
</g>
<g>
</g>
<g>
</g>
<g>
</g>
<g>
</g>
<g>
</g>
</svg>
