<?xml version="1.0" encoding="iso-8859-1"?>
<!-- Generator: Adobe Illustrator 19.0.0, SVG Export Plug-In . SVG Version: 6.00 Build 0)  -->
<svg version="1.1" id="Layer_1" xmlns="http://www.w3.org/2000/svg" xmlns:xlink="http://www.w3.org/1999/xlink" x="0px" y="0px"
	 viewBox="0 0 512 512" style="enable-background:new 0 0 512 512;" xml:space="preserve">
<path style="fill:#C8FEFF;" d="M416.352,71.376l-59.797,407.226C353.854,496.966,336.457,512,317.89,512H194.11
	c-18.567,0-35.964-15.034-38.664-33.398L95.648,71.376h33.95l126.391,45.011l126.413-45.011H416.352z"/>
<path style="fill:#F9EBDB;" d="M382.402,71.376L256,105.134L129.598,71.376c0-26.41,21.223-47.824,47.633-47.824
	c12.491,0,23.856,4.794,32.374,12.637C214.804,15.405,233.607,0,256,0c22.393,0,41.196,15.405,46.395,36.189
	c8.518-7.843,19.884-12.637,32.374-12.637C361.179,23.552,382.402,44.966,382.402,71.376z"/>
<path style="fill:#BD9F79;" d="M372.432,138.915l-42.637,288.655c-10.746,23.71-136.845,23.71-147.591-0.011l-42.637-288.644
	l0.158-0.023l116.263-33.758l116.286,33.758L372.432,138.915z"/>
<path style="fill:#E8D6BD;" d="M382.402,71.376l-9.97,67.539l-0.158-0.022c-29.066,0-29.066,15.754-58.143,15.754
	c-29.066,0-29.066-15.754-58.143-15.754c-29.066,0-29.066,15.754-58.132,15.754s-29.066-15.754-58.132-15.754l-0.158,0.023
	l-9.97-67.539L382.402,71.376L382.402,71.376z"/>
<g>
</g>
<g>
</g>
<g>
</g>
<g>
</g>
<g>
</g>
<g>
</g>
<g>
</g>
<g>
</g>
<g>
</g>
<g>
</g>
<g>
</g>
<g>
</g>
<g>
</g>
<g>
</g>
<g>
</g>
</svg>
